Coordinates
version=1
nRows=13
nColumns=36
inDegrees=yes

Units are S.I. units (second, meters, Newtons, ...)
If the header above contains a line with 'inDegrees', this indicates whether rotational values are in degrees (yes) or radians (no).

endheader
time	pelvis_tilt	pelvis_list	pelvis_rotation	pelvis_tx	pelvis_ty	pelvis_tz	hip_flexion_r	hip_adduction_r	hip_rotation_r	knee_angle_r	knee_angle_r_beta	ankle_angle_r	subtalar_angle_r	mtp_angle_r	hip_flexion_l	hip_adduction_l	hip_rotation_l	knee_angle_l	knee_angle_l_beta	ankle_angle_l	subtalar_angle_l	mtp_angle_l	lumbar_extension	lumbar_bending	lumbar_rotation	arm_flex_r	arm_add_r	arm_rot_r	elbow_flex_r	pro_sup_r	arm_flex_l	arm_add_l	arm_rot_l	elbow_flex_l	pro_sup_l
      1.34000000	    -19.34925508	      0.91356597	      2.58806603	     -0.33873285	      0.62586591	     -0.63715244	     93.11600600	    -15.43526791	      9.49912499	    101.38478932	      1.76949839	     21.78275778	     -9.10159174	     -7.24421935	     90.93628535	     -4.46302315	      5.48775612	     98.30022599	      1.71566260	     23.19266780	     -9.78257882	     -7.24421935	    -32.67476931	     -2.82266009	     -1.29875685	     68.13818573	    -25.87572988	      9.15801531	    111.80578359	     99.74566727	     38.23759670	    -23.48136775	      3.41253944	    120.12434172	    111.08876753
      1.35000000	    -19.91029017	      0.95391578	      2.73076784	     -0.33628026	      0.61721882	     -0.63740980	     94.86560580	    -15.60978878	      9.88144463	    103.04128304	      1.79840965	     21.79182196	     -9.32577798	     -7.24667637	     92.13484810	     -4.35308254	      5.57431588	     99.58851506	      1.73814748	     24.37029901	     -9.72881816	     -7.24667637	    -33.10926477	     -2.72787334	     -1.10741040	     69.88778293	    -25.70443984	     10.37643930	    111.69189661	     99.77494507	     40.50808912	    -23.36613054	      5.09768870	    119.02929853	    111.09715839
      1.36000000	    -20.49323749	      0.98047467	      2.90786558	     -0.33395893	      0.60929546	     -0.63769779	     96.27336913	    -15.98527572	      9.99230583	    104.35782544	      1.82138765	     22.35770092	     -9.64260628	     -7.24918911	     93.20731608	     -4.32008248	      5.57036859	    100.65577284	      1.75677465	     25.84776838	     -9.40736246	     -7.24918911	    -33.40586549	     -2.65208563	     -0.89417049	     71.40379436	    -25.67577900	     11.65862418	    111.59785158	     99.76253356	     42.76140088	    -23.31851097	      6.88475152	    117.78083523	    111.09341559
      1.37000000	    -20.94293516	      0.84921364	      2.95847109	     -0.33161652	      0.60252027	     -0.63799555	     97.07904042	    -16.42780512	      9.72632620	    105.27281003	      1.83735715	     23.80826150	     -9.29204504	     -7.25604350	     94.05420696	     -4.54909983	      5.73387609	    101.71201257	      1.77520951	     28.23071911	     -7.52820675	     -7.25604350	    -33.77556436	     -2.56785628	     -0.11281742	     72.67068026	    -26.32832512	     12.51288868	    111.91059080	     99.49136701	     45.42567604	    -22.81759656	      9.07998047	    116.17057786	    111.04938426
      1.38000000	    -21.80651994	      0.64491579	      3.12774898	     -0.32930080	      0.59616423	     -0.63865192	     97.97849337	    -17.16836175	      9.21851595	    105.83628750	      1.84719169	     25.23870991	     -9.40634985	     -7.25851042	     95.32695114	     -4.62918967	      5.84618733	    102.49572578	      1.78888788	     29.16469325	     -7.29001121	     -7.25851042	    -33.54246654	     -2.24256673	     -0.15884163	     73.87167795	    -25.81130814	     13.54741217	    111.51134086	     99.35101103	     47.07539209	    -23.08097892	     10.34981844	    115.37124887	    111.03192583
      1.39000000	    -22.40415082	      0.37201776	      3.09146461	     -0.32684774	      0.59115887	     -0.63895368	     98.20847379	    -17.80789983	      8.50917418	    106.13591893	      1.85242124	     28.23196117	     -7.67186377	     -7.26743836	     96.31504689	     -5.05842736	      6.00827087	    103.32422568	      1.80334794	     30.68374552	     -5.67543212	     -7.26743836	    -33.59205814	     -1.99383856	      0.13747460	     75.24676780	    -25.75794002	     14.55262930	    111.28414163	     98.86858485	     49.00982812	    -23.21594122	     11.65083387	    114.64110834	    110.87423033
      1.40000000	    -23.04015899	      0.25569990	      2.97661347	     -0.32449672	      0.58702664	     -0.63911932	     98.32962346	    -18.34793039	      7.99789418	    106.14661676	      1.85260795	     30.92485510	     -6.51805433	     -7.27591068	     97.26319882	     -5.56387368	      5.91462296	    103.98694326	      1.81491454	     31.32967132	     -5.02701551	     -7.27591068	    -33.60273953	     -1.89514249	      0.25751966	     76.86551463	    -25.47235964	     15.41378304	    110.82638172	     98.49531683	     50.95401592	    -23.78458840	     12.89443328	    114.27301738	    110.84105539
      1.41000000	    -23.58812481	      0.28172574	      2.84963704	     -0.32225109	      0.58379484	     -0.63915428	     98.39940608	    -18.77484471	      7.80511668	    106.09041954	      1.85162713	     33.03377243	     -5.54268104	     -7.28217992	     97.95806755	     -5.99648847	      5.76404824	    104.48708490	      1.82364366	     31.86388425	     -4.56214167	     -7.28217992	    -33.65145826	     -1.99271698	      0.30416218	     78.53509045	    -25.16567594	     16.27113338	    110.34054053	     98.29667540	     53.38828464	    -24.35638649	     14.21778127	    113.93326273	    110.96482898
      1.42000000	    -24.11955115	      0.38316019	      2.70768714	     -0.32016765	      0.58128532	     -0.63915974	     98.74099827	    -19.02240536	      7.87987558	    106.14413523	      1.85256464	     33.96846192	     -5.20582595	     -7.28433395	     98.50207997	     -6.39811837	      5.51542718	    104.83869866	      1.82978048	     32.27350682	     -4.43258380	     -7.28433395	    -33.62972276	     -2.11591414	      0.29161395	     80.47819342	    -24.85326127	     17.09992884	    109.59889038	     98.22219877	     56.03987925	    -25.02459790	     15.43532968	    113.59430323	    111.07987868
      1.43000000	    -24.27955250	      0.54369305	      2.67813070	     -0.31805670	      0.58011200	     -0.63929158	     99.02410394	    -19.32940199	      8.07341983	    106.48312348	      1.85848110	     34.68524903	     -3.93830812	     -7.29102965	     98.48261387	     -6.54381481	      5.30274623	    105.06348110	      1.83370367	     33.06283725	     -3.95102743	     -7.29102965	    -34.01702232	     -2.32126728	      0.43140868	     82.60533643	    -25.08860501	     17.78515145	    109.21594696	     98.02993557	     59.42782439	    -25.32642066	     16.92324891	    112.91942106	    111.23787036
      1.44000000	    -24.47819770	      0.63167900	      2.58100754	     -0.31616726	      0.57982538	     -0.63924655	     99.39731852	    -19.42819732	      8.08803861	    106.72743307	      1.86274511	     34.43168135	     -3.75350780	     -7.29294518	     98.43988877	     -6.64480361	      5.19393182	    105.12069963	      1.83470232	     33.38906662	     -4.03912067	     -7.29294518	    -34.26665662	     -2.37522246	      0.42344543	     85.09139673	    -24.80272015	     18.63339711	    108.22512158	     97.89052504	     62.63445123	    -25.95053287	     18.19493294	    112.46016056	    111.28341816
      1.45000000	    -24.41535175	      0.73389056	      2.41791114	     -0.31431237	      0.58078097	     -0.63899487	     99.29028509	    -19.33729443	      8.09011525	    106.81978726	      1.86435699	     34.31783440	     -3.71264999	     -7.29549154	     98.03319918	     -6.65917355	      5.23860911	    105.12685629	      1.83480977	     33.70510330	     -4.13736620	     -7.29549154	    -34.74698102	     -2.54400829	      0.51348014	     87.77254615	    -24.76631603	     19.66576190	    107.30563243	     97.68764017	     66.33382492	    -26.46351845	     19.71178619	    111.72983544	    111.27962245
      1.46000000	    -24.38796546	      0.69922174	      2.20552723	     -0.31263396	      0.58248794	     -0.63867559	     98.85407564	    -18.98208155	      8.02680643	    106.60097661	      1.86053803	     34.41604179	     -3.89211431	     -7.29971429	     97.65494742	     -6.68410893	      5.43026784	    105.01984151	      1.83294201	     33.93805229	     -4.24023121	     -7.29971429	    -35.08079236	     -2.64318231	      0.85748305	     90.45262055	    -24.95226480	     20.59261748	    106.56577951	     97.35956236	     70.18955945	    -26.47558454	     21.21553978	    110.69597544	    111.22207103
